<mxfile host="app.diagrams.net" agent="Mozilla/5.0 (Windows NT 10.0; Win64; x64) AppleWebKit/537.36 (KHTML, like Gecko) Chrome/134.0.0.0 Safari/537.36" version="26.1.1">
  <diagram name="Strona-1" id="gZOSYektZBY20sTcCc8C">
    <mxGraphModel dx="1050" dy="522" grid="1" gridSize="10" guides="1" tooltips="1" connect="1" arrows="1" fold="1" page="1" pageScale="1" pageWidth="827" pageHeight="1169" math="0" shadow="0">
      <root>
        <mxCell id="0" />
        <mxCell id="1" parent="0" />
        <mxCell id="luq68wq0UbunOEpUA4AO-14" style="edgeStyle=orthogonalEdgeStyle;rounded=0;orthogonalLoop=1;jettySize=auto;html=1;" edge="1" parent="1" source="luq68wq0UbunOEpUA4AO-3" target="luq68wq0UbunOEpUA4AO-5">
          <mxGeometry relative="1" as="geometry" />
        </mxCell>
        <mxCell id="luq68wq0UbunOEpUA4AO-3" value="Actor" style="shape=umlActor;verticalLabelPosition=bottom;verticalAlign=top;html=1;outlineConnect=0;" vertex="1" parent="1">
          <mxGeometry x="110" y="220" width="30" height="60" as="geometry" />
        </mxCell>
        <mxCell id="luq68wq0UbunOEpUA4AO-4" value="Actor" style="shape=umlActor;verticalLabelPosition=bottom;verticalAlign=top;html=1;outlineConnect=0;" vertex="1" parent="1">
          <mxGeometry x="110" y="340" width="30" height="60" as="geometry" />
        </mxCell>
        <mxCell id="luq68wq0UbunOEpUA4AO-11" style="edgeStyle=orthogonalEdgeStyle;rounded=0;orthogonalLoop=1;jettySize=auto;html=1;exitX=1;exitY=0.5;exitDx=0;exitDy=0;entryX=0;entryY=0.5;entryDx=0;entryDy=0;" edge="1" parent="1" source="luq68wq0UbunOEpUA4AO-5" target="luq68wq0UbunOEpUA4AO-9">
          <mxGeometry relative="1" as="geometry" />
        </mxCell>
        <mxCell id="luq68wq0UbunOEpUA4AO-5" value="" style="rounded=0;whiteSpace=wrap;html=1;" vertex="1" parent="1">
          <mxGeometry x="210" y="160" width="120" height="140" as="geometry" />
        </mxCell>
        <mxCell id="luq68wq0UbunOEpUA4AO-7" value="FRONTEND" style="text;html=1;align=center;verticalAlign=middle;whiteSpace=wrap;rounded=0;" vertex="1" parent="1">
          <mxGeometry x="240" y="170" width="60" height="30" as="geometry" />
        </mxCell>
        <mxCell id="luq68wq0UbunOEpUA4AO-12" style="edgeStyle=orthogonalEdgeStyle;rounded=0;orthogonalLoop=1;jettySize=auto;html=1;exitX=1;exitY=0.5;exitDx=0;exitDy=0;entryX=0;entryY=0.5;entryDx=0;entryDy=0;" edge="1" parent="1" source="luq68wq0UbunOEpUA4AO-9" target="luq68wq0UbunOEpUA4AO-10">
          <mxGeometry relative="1" as="geometry" />
        </mxCell>
        <mxCell id="luq68wq0UbunOEpUA4AO-9" value="" style="rounded=0;whiteSpace=wrap;html=1;" vertex="1" parent="1">
          <mxGeometry x="414" y="155" width="120" height="145" as="geometry" />
        </mxCell>
        <mxCell id="luq68wq0UbunOEpUA4AO-13" style="edgeStyle=orthogonalEdgeStyle;rounded=0;orthogonalLoop=1;jettySize=auto;html=1;" edge="1" parent="1" source="luq68wq0UbunOEpUA4AO-10" target="luq68wq0UbunOEpUA4AO-9">
          <mxGeometry relative="1" as="geometry" />
        </mxCell>
        <mxCell id="luq68wq0UbunOEpUA4AO-10" value="" style="rounded=0;whiteSpace=wrap;html=1;" vertex="1" parent="1">
          <mxGeometry x="630" y="160" width="110" height="145" as="geometry" />
        </mxCell>
        <mxCell id="luq68wq0UbunOEpUA4AO-15" value="SERVER MAP" style="text;html=1;align=center;verticalAlign=middle;whiteSpace=wrap;rounded=0;" vertex="1" parent="1">
          <mxGeometry x="444" y="160" width="60" height="30" as="geometry" />
        </mxCell>
        <mxCell id="luq68wq0UbunOEpUA4AO-17" value="BAZA DANYCH" style="text;html=1;align=center;verticalAlign=middle;whiteSpace=wrap;rounded=0;" vertex="1" parent="1">
          <mxGeometry x="652.5" y="170" width="60" height="30" as="geometry" />
        </mxCell>
        <mxCell id="luq68wq0UbunOEpUA4AO-18" value="" style="rounded=0;whiteSpace=wrap;html=1;" vertex="1" parent="1">
          <mxGeometry x="650" y="210" width="60" height="80" as="geometry" />
        </mxCell>
        <mxCell id="luq68wq0UbunOEpUA4AO-19" value="POSTGIS" style="text;html=1;align=center;verticalAlign=middle;whiteSpace=wrap;rounded=0;" vertex="1" parent="1">
          <mxGeometry x="650" y="210" width="60" height="70" as="geometry" />
        </mxCell>
        <mxCell id="luq68wq0UbunOEpUA4AO-20" value="ReactJS" style="rounded=0;whiteSpace=wrap;html=1;" vertex="1" parent="1">
          <mxGeometry x="220" y="220" width="90" height="60" as="geometry" />
        </mxCell>
        <mxCell id="luq68wq0UbunOEpUA4AO-21" value="" style="rounded=0;whiteSpace=wrap;html=1;" vertex="1" parent="1">
          <mxGeometry x="437" y="200" width="74" height="90" as="geometry" />
        </mxCell>
        <mxCell id="luq68wq0UbunOEpUA4AO-22" value="Geoserwer" style="text;html=1;align=center;verticalAlign=middle;whiteSpace=wrap;rounded=0;" vertex="1" parent="1">
          <mxGeometry x="444" y="220" width="60" height="30" as="geometry" />
        </mxCell>
        <mxCell id="luq68wq0UbunOEpUA4AO-23" value="" style="rounded=0;whiteSpace=wrap;html=1;fillColor=none;" vertex="1" parent="1">
          <mxGeometry x="370" y="110" width="440" height="260" as="geometry" />
        </mxCell>
        <mxCell id="luq68wq0UbunOEpUA4AO-24" value="" style="rounded=0;whiteSpace=wrap;html=1;fillColor=none;" vertex="1" parent="1">
          <mxGeometry x="170" y="60" width="830" height="340" as="geometry" />
        </mxCell>
      </root>
    </mxGraphModel>
  </diagram>
</mxfile>
